<?xml version='1.0' encoding='utf-8'?>
<svg xmlns="http://www.w3.org/2000/svg" viewBox="0 0 1716.56 380.57"><defs><style>.cls-1{fill:#ef7627;}.cls-2{fill:#ff9a56;}.cls-3{fill:#fbb03b;}.cls-4{fill:#724e2f;}.cls-5{fill:#b17f51;}.cls-6{fill:#29abe2;}.cls-7{fill:#fff;}.cls-8{fill:#009245;}.cls-9{fill:#e09e63;}.cls-10{fill:#a87d52;}.cls-11{fill:#c69c6d;}.cls-12{fill:#8c6239;}.cls-13{fill:#9d4738;}.cls-14{fill:#7d2819;}.cls-15{fill:#7aa3cb;}.cls-16{fill:#52748c;}.cls-17{fill:#0071bc;}.cls-18{fill:#335c72;}.cls-19{fill:#998675;}.cls-20{fill:#89796d;}.cls-21{fill:none;}.cls-22{fill:#736357;}.cls-23{fill:url(#Degradado_sin_nombre_39);}</style><linearGradient id="Degradado_sin_nombre_39" y1="184.97" x2="1672.88" y2="184.97" gradientUnits="userSpaceOnUse"><stop offset="0" stop-color="#f5b424"/><stop offset="0.1" stop-color="#fcee21" stop-opacity="0.4"/><stop offset="0.2" stop-color="#f5b424"/><stop offset="0.3" stop-color="#fcee21" stop-opacity="0.4"/><stop offset="0.4" stop-color="#f5b424"/><stop offset="0.5" stop-color="#fcee21" stop-opacity="0.4"/><stop offset="0.6" stop-color="#f5b424"/><stop offset="0.7" stop-color="#fcee21" stop-opacity="0.4"/><stop offset="0.8" stop-color="#f5b424"/><stop offset="0.9" stop-color="#fcee21" stop-opacity="0.4"/><stop offset="1" stop-color="#f5b424"/></linearGradient></defs><g id="Capa_2" data-name="Capa 2"><g id="Used"><path class="cls-1" d="M288.45,186.94c0-5.18,6.41-10.69,5.8-15.7s-8.16-9-9.36-13.88,3.67-11.88,1.87-16.63-10.07-6.71-12.44-11.21.72-12.4-2.18-16.6-11.37-4.08-14.76-7.9-2.25-12.21-6.08-15.6-12-1.25-16.21-4.16S230,74,225.47,71.56s-11.94,1.66-16.74-.16-7.63-9.76-12.64-11-11.15,4.5-16.28,3.88-9.72-7.63-14.9-7.63-9.88,7-14.9,7.63-11.36-5.08-16.28-3.88-7.89,9.19-12.64,11-12.23-2.21-16.74.16-5.43,10.8-9.62,13.7S82.34,86,78.52,89.42s-2.69,11.77-6.08,15.6-11.85,3.69-14.76,7.9.21,12.06-2.18,16.6-10.61,6.4-12.44,11.21,3.1,11.63,1.88,16.63-8.76,8.75-9.37,13.88,5.8,10.52,5.8,15.7-6.41,10.69-5.8,15.7,8.16,9,9.37,13.87-3.68,11.89-1.88,16.64,10.07,6.7,12.44,11.21-.72,12.4,2.18,16.59,11.37,4.09,14.76,7.91,2.25,12.2,6.08,15.6,12,1.25,16.21,4.16,5.09,11.31,9.62,13.7,11.94-1.66,16.74.16,7.64,9.75,12.64,11S144.89,309,150,309.59s9.72,7.63,14.9,7.63,9.88-7,14.9-7.63,11.37,5.08,16.29,3.87,7.88-9.18,12.63-11,12.23,2.21,16.74-.16,5.43-10.8,9.62-13.7,12.39-.78,16.21-4.16,2.69-11.78,6.08-15.6,11.85-3.7,14.76-7.91-.2-12,2.18-16.59,10.61-6.41,12.44-11.21-3.1-11.64-1.87-16.64,8.75-8.74,9.36-13.87S288.45,192.12,288.45,186.94Z"/><circle class="cls-2" cx="164.91" cy="186.94" r="91.46"/><circle class="cls-3" cx="164.91" cy="186.94" r="38.06"/><path class="cls-4" d="M1081.89,246.06a1.9,1.9,0,0,1-.25,0c-.16,0-.32,0-.47-.08l-.27-.07a3.25,3.25,0,0,1-.42-.11l-.29-.1-.37-.14-.28-.13a3.84,3.84,0,0,1-.35-.18l-.27-.16-.33-.2-.26-.19-.29-.23-.24-.21-.27-.25-.22-.24c-.08-.09-.17-.18-.25-.28l-.19-.26-.22-.3-.17-.28-.19-.32c0-.09-.09-.19-.14-.29s-.11-.22-.16-.34-.07-.21-.11-.31-.09-.24-.12-.35-.06-.22-.09-.33l-.09-.37c0-.11,0-.23,0-.34s0-.25,0-.38,0-.23,0-.35,0-.21,0-.32v-.13a2.28,2.28,0,0,1,0-.27,2.73,2.73,0,0,1,0-.41,1.66,1.66,0,0,1,0-.22,7.18,7.18,0,0,1,7.1-6.15h41.12a79.07,79.07,0,0,0-2.6-14.36h-31.6a7.18,7.18,0,0,1-7.1-6.16l0-.2c0-.14,0-.28,0-.42a2.45,2.45,0,0,1,0-.27v-.13c0-.11,0-.21,0-.32s0-.24,0-.35,0-.25,0-.38,0-.23.06-.34,0-.25.08-.37l.09-.33c0-.11.08-.23.12-.35s.07-.21.12-.31a3.31,3.31,0,0,1,.15-.33,2.1,2.1,0,0,1,.15-.3,3.3,3.3,0,0,1,.18-.32l.17-.28.22-.3c.07-.09.13-.18.2-.26a3.22,3.22,0,0,1,.24-.28l.22-.24.27-.25.24-.21.3-.23.26-.19.32-.2.27-.16a2.26,2.26,0,0,1,.35-.17l.28-.14.38-.14.28-.1a3.25,3.25,0,0,1,.42-.11l.27-.07c.16,0,.32,0,.48-.08l.24,0a6,6,0,0,1,.74,0h26a78.54,78.54,0,0,0-9.39-14.36H1059a7.17,7.17,0,0,1-7.09-6.16,1.55,1.55,0,0,1,0-.21l0-.41a2.45,2.45,0,0,0,0-.27s0,0,0-.07,0,0,0-.06,0-.22,0-.32,0-.24,0-.36,0-.25,0-.37,0-.23,0-.34l.09-.37c0-.11.05-.22.08-.33s.08-.23.13-.35.07-.21.11-.31a3.54,3.54,0,0,1,.16-.34c0-.1.09-.2.14-.3s.13-.21.19-.31l.17-.28a3.3,3.3,0,0,1,.22-.3,2.48,2.48,0,0,1,.19-.26c.08-.1.17-.19.25-.28l.22-.24a3.2,3.2,0,0,1,.27-.25c.08-.07.15-.15.24-.22a3.15,3.15,0,0,1,.29-.22l.26-.19.32-.2.27-.17.35-.17.28-.13a3.57,3.57,0,0,1,.38-.14l.29-.11.42-.11.27-.07.47-.07.25,0c.24,0,.49,0,.73,0h31.66a78.29,78.29,0,0,0-45.32-14.37c-1,0-2,0-3,.07a4.93,4.93,0,0,1,.67.11l.21.06.44.12.24.09.38.14.25.12.34.17.25.15.31.18.24.18.28.21.23.2.26.23.21.22a2.73,2.73,0,0,1,.23.25l.19.24.22.27c.05.09.11.17.17.26l.18.29.15.27.16.31.12.28c0,.11.09.22.13.33l.1.3c0,.11.07.22.1.34s0,.2.07.3l.06.36c0,.1,0,.21.05.31l0,.37c0,.11,0,.22,0,.32s0,.09,0,.14,0,.14,0,.22a1.93,1.93,0,0,1,0,.24s0,.09,0,.14,0,.23,0,.35,0,.23-.05.34l-.09.41-.06.22a7.18,7.18,0,0,1-6.91,5.26h-41.46a78.64,78.64,0,0,0-15.46,14.36h43.32a7.18,7.18,0,0,1,7.1,6.15l0,.21,0,.41a2.45,2.45,0,0,0,0,.27s0,.05,0,.07,0,0,0,.07,0,.21,0,.31,0,.24,0,.36,0,.25,0,.37,0,.24,0,.35-.06.24-.09.36,0,.22-.08.33l-.12.35-.12.32-.15.33-.15.3a3.21,3.21,0,0,1-.19.31,2.75,2.75,0,0,1-.17.29l-.21.29-.2.27-.25.27-.21.24-.28.25-.23.22-.3.23-.26.19-.33.2-.26.16-.35.17-.28.14-.38.14-.29.1-.41.11-.28.07-.47.07-.24,0a6.12,6.12,0,0,1-.74,0H975.2a78.18,78.18,0,0,0-5.59,14.36h27.23a7.11,7.11,0,0,1,4.57,1.64,7.24,7.24,0,0,1,1.39,1.53,7.1,7.1,0,0,1,.66,1.21,7.25,7.25,0,0,1,.56,2.8h0a7.1,7.1,0,0,1-1.64,4.57c-.14.17-.3.35-.46.51a7.15,7.15,0,0,1-5.08,2.1H967c-.19,2.26-.3,4.55-.3,6.86,0,2.53.13,5,.36,7.5h23.39a7.18,7.18,0,0,1,7.1,6.15,1.92,1.92,0,0,1,0,.22,2.69,2.69,0,0,1,0,.4c0,.1,0,.19,0,.28v.13c0,.11,0,.21,0,.32s0,.24,0,.35,0,.25-.05.38,0,.23,0,.34l-.09.37c0,.11,0,.22-.09.33s-.08.23-.12.35-.07.21-.11.31-.11.23-.16.34l-.14.3-.19.31-.17.28c-.07.11-.15.2-.22.3l-.19.26c-.08.1-.17.19-.25.28l-.22.24-.27.25c-.08.07-.16.15-.24.21l-.29.23-.26.19-.32.2-.28.17-.34.17-.29.13-.37.14-.29.11-.41.1-.28.08-.47.07-.25,0c-.24,0-.49,0-.74,0H969.79a78.87,78.87,0,0,0,30.27,42.45h38.59a7.17,7.17,0,0,1,6.91,5.25,1.17,1.17,0,0,1,0,.2c0,.14.07.28.1.43s0,.22,0,.34,0,.23,0,.35a.69.69,0,0,0,0,.13v.27c0,.07,0,.14,0,.21v.1c0,.1,0,.2,0,.3s0,.23,0,.35,0,.2,0,.29a3.43,3.43,0,0,1-.06.34l-.06.29c0,.11-.05.22-.08.32l-.09.28c0,.11-.07.21-.11.31s-.08.18-.11.27l-.14.3c0,.09-.09.17-.13.26l-.17.28-.15.24a2.61,2.61,0,0,1-.19.27,2,2,0,0,1-.17.23,2.52,2.52,0,0,1-.21.25l-.18.21-.24.24-.2.19-.25.22c-.08.06-.14.12-.22.17l-.28.2-.22.15-.3.18-.23.13-.34.16-.22.1-.39.14-.2.07c-.2.07-.4.12-.6.17,1.71.11,3.43.17,5.17.17a78.51,78.51,0,0,0,60.51-28.4H1047.5c-.25,0-.49,0-.74,0l-.25,0-.46-.07-.28-.07-.42-.11-.28-.11a2.46,2.46,0,0,1-.38-.14l-.28-.13-.35-.17-.27-.16-.32-.2-.26-.2-.3-.22-.24-.22-.27-.25-.22-.24-.24-.28c-.07-.08-.13-.17-.2-.26a3.06,3.06,0,0,1-.21-.29l-.18-.29-.18-.31-.15-.3-.15-.33-.12-.32-.12-.35c0-.11-.06-.22-.08-.33s-.07-.24-.09-.36,0-.23,0-.35l-.06-.37c0-.12,0-.24,0-.36s0-.21,0-.31v-.14c0-.09,0-.18,0-.27s0-.28,0-.41l0-.21a7.17,7.17,0,0,1,7.1-6.15h40.28a6.83,6.83,0,0,0,6.79-6.89.86.86,0,0,1,0-.16,2.28,2.28,0,0,1,0-.26,2.69,2.69,0,0,1,0-.4l0-.25c0-.17.06-.34.1-.51v0a7.19,7.19,0,0,1,7-5.54H1121a78.88,78.88,0,0,0,2.72-14.36h-41.06A6,6,0,0,1,1081.89,246.06Z"/><path class="cls-5" d="M1041.52,174.3a7.18,7.18,0,0,0,6.91-5.26l.06-.22.09-.41c0-.11,0-.23.05-.34s0-.23,0-.35,0-.09,0-.14a1.93,1.93,0,0,0,0-.24c0-.08,0-.15,0-.22s0-.09,0-.14,0-.21,0-.32l0-.37c0-.1,0-.21-.05-.31l-.06-.36c0-.1,0-.2-.07-.3s-.07-.23-.1-.34l-.1-.3c0-.11-.08-.22-.13-.33l-.12-.28-.16-.31-.15-.27-.18-.29c-.06-.09-.12-.17-.17-.26l-.22-.27-.19-.24a2.73,2.73,0,0,0-.23-.25l-.21-.22-.26-.23-.23-.2-.28-.21-.24-.18-.31-.18-.25-.15-.34-.17-.25-.12-.38-.14-.24-.09-.44-.12-.21-.06a4.93,4.93,0,0,0-.67-.11,78.16,78.16,0,0,0-42.35,14.3h41.46Z"/><path class="cls-5" d="M1101.75,260.46a7.19,7.19,0,0,0-7,5.54s0,0,0,0c0,.17-.07.34-.1.51l0,.25a2.69,2.69,0,0,0,0,.4,2.28,2.28,0,0,0,0,.26.86.86,0,0,0,0,.16,6.83,6.83,0,0,1-6.79,6.89H1047.5a7.17,7.17,0,0,0-7.1,6.15l0,.21c0,.13,0,.27,0,.41s0,.18,0,.27v.14c0,.1,0,.21,0,.31s0,.24,0,.36l.06.37c0,.12,0,.23,0,.35s.06.24.09.36,0,.22.08.33l.12.35.12.32.15.33.15.3.18.31.18.29a3.06,3.06,0,0,0,.21.29c.07.09.13.18.2.26l.24.28.22.24.27.25.24.22.3.22.26.2.32.2.27.16.35.17.28.13a2.46,2.46,0,0,0,.38.14l.28.11.42.11.28.07.46.07.25,0c.25,0,.49,0,.74,0h58.39a78.16,78.16,0,0,0,8.68-12.81c.22-.41.44-.82.65-1.24a77.72,77.72,0,0,0,5.75-14.36h-19.22Z"/><path class="cls-5" d="M1088.81,203.06l-.24,0c-.16,0-.32,0-.48.08l-.27.07a3.25,3.25,0,0,0-.42.11l-.28.1-.38.14-.28.14a2.26,2.26,0,0,0-.35.17l-.27.16-.32.2-.26.19-.3.23-.24.21-.27.25-.22.24a3.22,3.22,0,0,0-.24.28c-.07.08-.13.17-.2.26l-.22.3-.17.28a3.3,3.3,0,0,0-.18.32,2.1,2.1,0,0,0-.15.3,3.31,3.31,0,0,0-.15.33c-.05.1-.08.21-.12.31s-.09.24-.12.35l-.09.33c0,.12-.06.24-.08.37s0,.23-.06.34,0,.25,0,.38,0,.23,0,.35,0,.21,0,.32v.13a2.45,2.45,0,0,0,0,.27c0,.14,0,.28,0,.42l0,.2a7.18,7.18,0,0,0,7.1,6.16h31.6a77.5,77.5,0,0,0-5.6-14.36h-26A6,6,0,0,0,1088.81,203.06Z"/><path class="cls-5" d="M996.84,231.74a7.13,7.13,0,0,0,4-1.23,6.82,6.82,0,0,0,1.06-.87c.16-.16.32-.34.46-.51a7.1,7.1,0,0,0,1.64-4.57h0a7.25,7.25,0,0,0-.56-2.8,7.1,7.1,0,0,0-.66-1.21,7.24,7.24,0,0,0-1.39-1.53,7.11,7.11,0,0,0-4.57-1.64H969.61a79.07,79.07,0,0,0-2.6,14.36Z"/><path class="cls-5" d="M997.64,253.15c0-.09,0-.18,0-.28a2.69,2.69,0,0,0,0-.4,1.92,1.92,0,0,0,0-.22,7.18,7.18,0,0,0-7.1-6.15H967.07a78.88,78.88,0,0,0,2.72,14.36h20.67c.25,0,.5,0,.74,0l.25,0,.47-.07.28-.08.41-.1.29-.11.37-.14.29-.13.34-.17.28-.17.32-.2.26-.19.29-.23c.08-.06.16-.14.24-.21l.27-.25.22-.24c.08-.09.17-.18.25-.28l.19-.26c.07-.1.15-.19.22-.3l.17-.28.19-.31.14-.3c0-.11.11-.22.16-.34s.07-.21.11-.31.09-.23.12-.35.06-.22.09-.33l.09-.37c0-.11,0-.23,0-.34s0-.25.05-.38,0-.23,0-.35,0-.21,0-.32v-.13Z"/><path class="cls-5" d="M1045.82,309.61a.69.69,0,0,1,0-.13c0-.12,0-.24,0-.35s0-.23,0-.34-.06-.29-.1-.43a1.17,1.17,0,0,0,0-.2,7.17,7.17,0,0,0-6.91-5.25h-38.59a78.28,78.28,0,0,0,40.15,14.19c.2-.05.4-.1.6-.17l.2-.07.39-.14.22-.1.34-.16.23-.13.3-.18.22-.15.28-.2.22-.17.25-.22.2-.19.24-.24.18-.21a2.52,2.52,0,0,0,.21-.25,2,2,0,0,0,.17-.23,1.85,1.85,0,0,0,.19-.27l.15-.24.17-.28c0-.09.08-.17.13-.26l.14-.3c0-.09.07-.18.11-.27s.07-.2.11-.31l.09-.28c0-.1,0-.21.08-.32l.06-.29a3.43,3.43,0,0,0,.06-.34c0-.09,0-.19,0-.29s0-.23,0-.35,0-.2,0-.3v-.1c0-.07,0-.14,0-.21Z"/><path class="cls-5" d="M1051.86,181.61a2.45,2.45,0,0,1,0,.27l0,.41c0,.07,0,.14,0,.21a7.17,7.17,0,0,0,7.09,6.16h47.12a78.92,78.92,0,0,0-15.46-14.36H1059c-.24,0-.49,0-.73,0l-.25,0-.47.07-.27.07-.42.11-.29.11a3.57,3.57,0,0,0-.38.14l-.28.13-.35.17-.27.17-.32.2-.26.19a3.15,3.15,0,0,0-.29.22c-.09.07-.16.15-.24.22a3.2,3.2,0,0,0-.27.25l-.22.24c-.08.09-.17.18-.25.28a2.48,2.48,0,0,0-.19.26,3.3,3.3,0,0,0-.22.3l-.17.28c-.06.1-.13.2-.19.31s-.1.2-.14.3a3.54,3.54,0,0,0-.16.34c0,.1-.08.21-.11.31s-.09.23-.13.35-.05.22-.08.33l-.09.37c0,.11,0,.22,0,.34s0,.25,0,.37,0,.24,0,.36,0,.21,0,.32,0,0,0,.06S1051.86,181.59,1051.86,181.61Z"/><path class="cls-5" d="M1028.66,203l.24,0,.47-.07.28-.07.41-.11.29-.1.38-.14.28-.14.35-.17.26-.16.33-.2.26-.19.3-.23.23-.22.28-.25.21-.24.25-.27.2-.27.21-.29a2.75,2.75,0,0,0,.17-.29,3.21,3.21,0,0,0,.19-.31l.15-.3.15-.33.12-.32.12-.35c0-.11.06-.22.08-.33s.07-.24.09-.36,0-.23,0-.35,0-.24,0-.37,0-.24,0-.36,0-.21,0-.31,0-.05,0-.07,0,0,0-.07a2.45,2.45,0,0,1,0-.27l0-.41,0-.21a7.18,7.18,0,0,0-7.1-6.15H984.6A78.58,78.58,0,0,0,975.2,203h52.72A6.12,6.12,0,0,0,1028.66,203Z"/><path class="cls-5" d="M1123.75,231.74h-41.12a7.18,7.18,0,0,0-7.1,6.15,1.66,1.66,0,0,0,0,.22,2.73,2.73,0,0,0,0,.41,2.28,2.28,0,0,0,0,.27v.13c0,.11,0,.21,0,.32s0,.24,0,.35,0,.25,0,.38,0,.23,0,.34l.09.37c0,.11,0,.22.09.33s.08.23.12.35.07.21.11.31.11.22.16.34.09.2.14.29l.19.32.17.28.22.3.19.26c.08.1.17.19.25.28l.22.24.27.25.24.21.29.23.26.19.33.2.27.16a3.84,3.84,0,0,0,.35.18l.28.13.37.14.29.1a3.25,3.25,0,0,0,.42.11l.27.07c.15,0,.31.05.47.08a1.9,1.9,0,0,0,.25,0,6,6,0,0,0,.74,0h41.06c.23-2.47.36-5,.36-7.5C1124.05,236.29,1123.94,234,1123.75,231.74Z"/><path class="cls-6" d="M711.18,186.37s0-.09,0-.13a5.69,5.69,0,0,1,5.63-4.87h8.31a5.83,5.83,0,0,0,.59,0l.18,0,.39-.06.22-.06.32-.08.23-.09.3-.11a1.51,1.51,0,0,0,.22-.11l.28-.13.22-.13.25-.16.21-.15.23-.18.19-.17.22-.2.17-.19.2-.22.15-.21c.06-.08.12-.15.17-.23l.14-.23.15-.25.11-.24c0-.09.09-.17.12-.26a2.6,2.6,0,0,0,.1-.25c0-.1.07-.19.09-.28a2.5,2.5,0,0,0,.07-.26c0-.1.05-.19.07-.29a2.51,2.51,0,0,0,0-.27c0-.1,0-.2,0-.3s0-.19,0-.28,0-.21,0-.31a2.45,2.45,0,0,0,0-.27c0-.11,0-.22,0-.32a1,1,0,0,1,0-.17A5.86,5.86,0,0,0,725,170h-7.7a5.69,5.69,0,0,1-5.52-4.33.24.24,0,0,1,0-.08c0-.13-.06-.25-.08-.38l0-.23,0-.3c0-.06,0-.12,0-.19a.61.61,0,0,1,0-.14,5.74,5.74,0,0,0-5.51-5.73l-.52,0a5.49,5.49,0,0,1-.58,0l-.2,0-.37-.06-.22-.06-.33-.08-.23-.09-.3-.11-.22-.1-.28-.14-.21-.13a2.26,2.26,0,0,1-.26-.16l-.2-.15-.24-.18-.19-.17c-.07-.07-.15-.13-.21-.2l-.18-.19c-.06-.07-.13-.14-.19-.22l-.16-.21c-.06-.08-.12-.15-.17-.23l-.14-.23a2,2,0,0,1-.14-.25c0-.08-.08-.16-.12-.23l-.12-.27a2.5,2.5,0,0,1-.09-.25,2.31,2.31,0,0,1-.1-.28,2,2,0,0,1-.07-.26c0-.1,0-.19-.07-.29a2.51,2.51,0,0,1,0-.27c0-.1,0-.2,0-.3a2.62,2.62,0,0,1,0-.28,2.11,2.11,0,0,1,0-.25s0,0,0-.06,0,0,0-.05a1.8,1.8,0,0,1,0-.22c0-.11,0-.21,0-.32l0-.17a5.68,5.68,0,0,1,5.63-4.88h-3.3A5.7,5.7,0,0,1,700.63,136a51.24,51.24,0,0,0-43.45,34H673.1a5.68,5.68,0,0,1,5.63,4.88l0,.17c0,.1,0,.21,0,.32a1.64,1.64,0,0,1,0,.22v.11c0,.08,0,.16,0,.25s0,.19,0,.28,0,.2,0,.3a2.51,2.51,0,0,1,0,.27c0,.1-.05.19-.07.29a2.5,2.5,0,0,1-.07.26l-.09.28a2.6,2.6,0,0,1-.1.25,2.06,2.06,0,0,1-.12.26l-.11.24-.15.25-.14.23c-.05.08-.11.15-.17.23l-.16.21-.19.22-.17.19-.22.19-.19.18-.23.18-.21.15-.25.16-.22.13-.28.13-.22.11-.3.11-.23.09-.33.08-.22.06-.38.06-.18,0a5.83,5.83,0,0,1-.59,0l-4.1.18a5.27,5.27,0,0,0-5,5.42v.1c0,.21,0,.42,0,.62a.5.5,0,0,1,0,.12,5.71,5.71,0,0,1-2.37,3.92.84.84,0,0,0,.73,1c.2,0,.39,0,.59,0l.19,0,.37,0,.22.06.33.08.23.09.3.11.23.11.27.13.22.13.25.16.21.15.23.18.19.17.22.2.17.19.19.22.16.21c.06.08.12.15.17.23l.14.23.15.25.11.24c0,.09.09.17.12.26a2.6,2.6,0,0,1,.1.25c0,.09.07.19.09.28s0,.18.07.26,0,.19.07.29a2.51,2.51,0,0,1,0,.27c0,.1,0,.2,0,.3s0,.19,0,.28,0,.17,0,.25v.11a1.64,1.64,0,0,1,0,.22c0,.11,0,.22,0,.32l0,.17a5.68,5.68,0,0,1-5.63,4.88h-5A51.27,51.27,0,0,0,673.59,227a51,51,0,0,0,16.06,8.66,5.72,5.72,0,0,1,3-8.66,5.85,5.85,0,0,1,1.69-.25h30.77a5.78,5.78,0,0,1,1.19.13l.49-.13c.15,0,.29-.1.44-.15l.14-.07c.09,0,.18-.07.27-.12l.16-.08.24-.14.16-.1.22-.14.15-.13.2-.15.15-.14a1.37,1.37,0,0,0,.18-.16l.15-.15.16-.18a1.83,1.83,0,0,0,.13-.16l.15-.19c0-.06.08-.12.12-.17l.14-.2c0-.06.07-.12.1-.19l.12-.21.09-.19a1.47,1.47,0,0,0,.1-.22,1.19,1.19,0,0,0,.08-.2,1.55,1.55,0,0,0,.08-.23,1.72,1.72,0,0,0,.07-.21l.06-.23c0-.07,0-.15.05-.22s0-.16,0-.24l0-.22a2.11,2.11,0,0,0,0-.25,1.77,1.77,0,0,0,0-.23,1.93,1.93,0,0,0,0-.24,2.83,2.83,0,0,0,0-.29c0-.1,0-.21,0-.31l0-.2c0-.14,0-.27-.08-.41v0a5.88,5.88,0,0,0-5.73-4.4h-17.8a5.49,5.49,0,0,1-.58,0,1.38,1.38,0,0,1-.2,0l-.37-.05-.22-.06c-.11,0-.22,0-.33-.09l-.23-.08-.3-.11-.22-.11-.28-.13-.21-.13a2.26,2.26,0,0,1-.26-.16l-.2-.15-.24-.18-.19-.17c-.07-.07-.15-.13-.21-.2l-.18-.19c-.06-.08-.13-.15-.19-.22l-.16-.21a2.07,2.07,0,0,1-.17-.24l-.14-.22a2,2,0,0,1-.14-.25c0-.08-.08-.16-.12-.24l-.12-.26a2.5,2.5,0,0,1-.09-.25c0-.1-.07-.19-.1-.28a2.5,2.5,0,0,1-.07-.26c0-.1,0-.19-.07-.29a2.51,2.51,0,0,1,0-.27c0-.1,0-.2,0-.3a2.62,2.62,0,0,1,0-.28,2.28,2.28,0,0,1,0-.26.43.43,0,0,0,0-.05s0,0,0-.05a1.8,1.8,0,0,0,0-.22c0-.11,0-.22,0-.32l0-.17a5.69,5.69,0,0,1,5.63-4.89h.19a.59.59,0,0,0,.55-.68,5.68,5.68,0,0,1-3-4.64c0-.08,0-.15,0-.23s0-.1,0-.15,0,0,0-.07,0-.32,0-.49v0c0-.15,0-.3.07-.46a.43.43,0,0,0,0,0,1.6,1.6,0,0,1,0-.21,2.29,2.29,0,0,1,.07-.28c0-.1.06-.2.1-.3s0-.09,0-.13a5.7,5.7,0,0,1,5.32-3.69,1.82,1.82,0,0,0,1.59-2.41,5.62,5.62,0,0,1-.94-2.23c0-.14,0-.28-.07-.43a.66.66,0,0,1,0-.14c0-.13,0-.26,0-.4s0-.06,0-.08,0,0,0-.07v-.11c0-.07,0-.13,0-.19Zm-22.33,6.39h-6.49a5.7,5.7,0,1,1,0-11.39h6.49a5.7,5.7,0,1,1,0,11.39Z"/><path class="cls-6" d="M708.71,147.17h28.95A50.79,50.79,0,0,0,710.3,136a5.7,5.7,0,0,1-1.59,11.17Z"/><path class="cls-7" d="M730.75,231.44a5.71,5.71,0,0,0-3.93-4.48,3.89,3.89,0,0,0-.49-.12,5.78,5.78,0,0,0-1.19-.13H694.37a5.85,5.85,0,0,0-1.69.25,5.72,5.72,0,0,0-3,8.66,51.36,51.36,0,0,0,15.82,2.49h1.68l-.34,0A50.84,50.84,0,0,0,730.75,231.44Z"/><path class="cls-7" d="M702.22,147.17h6.49A5.7,5.7,0,0,0,710.3,136a5.51,5.51,0,0,0-1.59-.23h-6.49a5.61,5.61,0,0,0-1.59.23,5.7,5.7,0,0,0,1.59,11.17Z"/><path class="cls-8" d="M756.34,181.37a51.12,51.12,0,0,0-8.28-22.8,51.53,51.53,0,0,0-10.4-11.4H705.52a5.68,5.68,0,0,0-5.63,4.88l0,.17c0,.11,0,.21,0,.32a1.8,1.8,0,0,0,0,.22s0,0,0,.05,0,0,0,.06a2.11,2.11,0,0,0,0,.25,2.62,2.62,0,0,0,0,.28c0,.1,0,.2,0,.3a2.51,2.51,0,0,0,0,.27c0,.1.05.19.07.29a2,2,0,0,0,.07.26,2.31,2.31,0,0,0,.1.28,2.5,2.5,0,0,0,.09.25l.12.27c0,.07.07.15.12.23a2,2,0,0,0,.14.25l.14.23c.05.08.11.15.17.23l.16.21c.06.08.13.15.19.22l.18.19c.06.07.14.13.21.2l.19.17.24.18.2.15a2.26,2.26,0,0,0,.26.16l.21.13.28.14.22.1.3.11.23.09.33.08.22.06.37.06.2,0a5.49,5.49,0,0,0,.58,0l.52,0a5.74,5.74,0,0,1,5.51,5.73.61.61,0,0,0,0,.14c0,.07,0,.13,0,.19l0,.3,0,.23c0,.13,0,.25.08.38a.24.24,0,0,0,0,.08,5.69,5.69,0,0,0,5.52,4.33H725a5.86,5.86,0,0,1,5.83,4.88,1,1,0,0,0,0,.17c0,.1,0,.21,0,.32a2.45,2.45,0,0,1,0,.27c0,.1,0,.21,0,.31s0,.19,0,.28,0,.2,0,.3a2.51,2.51,0,0,1,0,.27c0,.1,0,.19-.07.29a2.5,2.5,0,0,1-.07.26c0,.09-.06.18-.09.28a2.6,2.6,0,0,1-.1.25c0,.09-.08.17-.12.26l-.11.24-.15.25-.14.23c0,.08-.11.15-.17.23l-.15.21-.2.22-.17.19-.22.2-.19.17-.23.18-.21.15-.25.16-.22.13-.28.13a1.51,1.51,0,0,1-.22.11l-.3.11-.23.09-.32.08-.22.06-.39.06-.18,0a5.83,5.83,0,0,1-.59,0h-8.31a5.69,5.69,0,0,0-5.63,4.87.59.59,0,0,0,0,.13l0,.33c0,.06,0,.12,0,.19V187s0,0,0,.07,0,.05,0,.08,0,.27,0,.4a.66.66,0,0,0,0,.14c0,.15,0,.29.07.43a5.62,5.62,0,0,0,.94,2.23,1.82,1.82,0,0,1-1.59,2.41,5.7,5.7,0,0,0-5.32,3.69.5.5,0,0,0,0,.13c0,.1-.07.2-.1.3s0,.18-.07.28a1.6,1.6,0,0,0,0,.21.43.43,0,0,1,0,0c0,.16,0,.31-.07.46v0c0,.16,0,.33,0,.49s0,.05,0,.07,0,.1,0,.15,0,.15,0,.23a5.68,5.68,0,0,0,3,4.64.59.59,0,0,1-.55.68h-.19a5.69,5.69,0,0,0-5.63,4.89l0,.17c0,.1,0,.21,0,.32a1.8,1.8,0,0,1,0,.22s0,0,0,.05a.43.43,0,0,1,0,.05,2.28,2.28,0,0,0,0,.26,2.62,2.62,0,0,0,0,.28c0,.1,0,.2,0,.3a2.51,2.51,0,0,0,0,.27c0,.1.05.19.07.29a2.5,2.5,0,0,0,.07.26c0,.09.06.18.1.28a2.5,2.5,0,0,0,.09.25l.12.26c0,.08.07.16.12.24a2,2,0,0,0,.14.25l.14.22a2.07,2.07,0,0,0,.17.24l.16.21c.06.07.13.14.19.22l.18.19c.06.07.14.13.21.2l.19.17.24.18.2.15a2.26,2.26,0,0,0,.26.16l.21.13.28.13.22.11.3.11.23.08c.11,0,.22.06.33.09l.22.06.37.05a1.38,1.38,0,0,0,.2,0,5.49,5.49,0,0,0,.58,0H725a5.88,5.88,0,0,1,5.73,4.4v0c0,.14.06.27.08.41l0,.2c0,.1,0,.21,0,.31a2.83,2.83,0,0,1,0,.29,1.93,1.93,0,0,1,0,.24,1.77,1.77,0,0,1,0,.23,2.11,2.11,0,0,1,0,.25l0,.22c0,.08,0,.16,0,.24s0,.15-.05.22l-.06.23a1.72,1.72,0,0,1-.07.21,1.55,1.55,0,0,1-.08.23,1.19,1.19,0,0,1-.08.2,1.47,1.47,0,0,1-.1.22l-.09.19-.12.21c0,.07-.07.13-.1.19l-.14.2c0,.05-.07.11-.12.17l-.15.19a1.83,1.83,0,0,1-.13.16l-.16.18-.15.15a1.37,1.37,0,0,1-.18.16l-.15.14-.2.15-.15.13-.22.14-.16.1-.24.14-.16.08c-.09,0-.18.08-.27.12l-.14.07c-.15.05-.29.11-.44.15l-.49.13a3.89,3.89,0,0,1,.49.12,5.71,5.71,0,0,1,3.93,4.48,51.05,51.05,0,0,0,6.6-4.48l.31-.25a51.16,51.16,0,0,0,10.23-11.15,51.09,51.09,0,0,0,8.42-22.8,53.2,53.2,0,0,0,.33-5.82A51.14,51.14,0,0,0,756.34,181.37Z"/><path class="cls-8" d="M676.93,179.87l.22-.19.17-.19.19-.22.16-.21c.06-.08.12-.15.17-.23l.14-.23.15-.25.11-.24a2.06,2.06,0,0,0,.12-.26,2.6,2.6,0,0,0,.1-.25l.09-.28a2.5,2.5,0,0,0,.07-.26c0-.1,0-.19.07-.29a2.51,2.51,0,0,0,0-.27c0-.1,0-.2,0-.3s0-.19,0-.28,0-.17,0-.25v-.11a1.64,1.64,0,0,0,0-.22c0-.11,0-.22,0-.32l0-.17A5.68,5.68,0,0,0,673.1,170H657.18a51.45,51.45,0,0,0-2.55,22.79,50.61,50.61,0,0,0,2.64,11.4h5a5.68,5.68,0,0,0,5.63-4.88l0-.17c0-.1,0-.21,0-.32a1.64,1.64,0,0,0,0-.22v-.11c0-.08,0-.16,0-.25s0-.19,0-.28,0-.2,0-.3a2.51,2.51,0,0,0,0-.27c0-.1,0-.19-.07-.29s0-.17-.07-.26-.06-.19-.09-.28a2.6,2.6,0,0,0-.1-.25c0-.09-.08-.17-.12-.26l-.11-.24-.15-.25-.14-.23c0-.08-.11-.15-.17-.23l-.16-.21-.19-.22-.17-.19-.22-.2-.19-.17-.23-.18-.21-.15-.25-.16-.22-.13-.27-.13-.23-.11-.3-.11L664,193l-.33-.08-.22-.06-.37,0-.19,0c-.2,0-.39,0-.59,0a.84.84,0,0,1-.73-1,5.71,5.71,0,0,0,2.37-3.92.5.5,0,0,0,0-.12c0-.2,0-.41,0-.62V187a5.27,5.27,0,0,1,5-5.42l4.1-.18a5.83,5.83,0,0,0,.59,0l.18,0,.38-.06.22-.06.33-.08L675,181l.3-.11.22-.11.28-.13.22-.13.25-.16.21-.15.23-.18Z"/><path class="cls-8" d="M688.85,181.37h-6.49a5.7,5.7,0,1,0,0,11.39h6.49a5.7,5.7,0,1,0,0-11.39Z"/><path class="cls-9" d="M549.23,121.31a.77.77,0,0,1,0-.15,5.7,5.7,0,0,1,5.64-4.91H585a45.47,45.47,0,0,0-29-11.39h-2.35a45.6,45.6,0,0,0,1.17,91.19h1.69l-.39,0a45.45,45.45,0,0,0,23.78-7.49,2.09,2.09,0,0,1-.08-.23,5.7,5.7,0,0,0-5.32-3.66h-18a5.83,5.83,0,0,1-.59,0l-.19,0-.38-.06a1.66,1.66,0,0,1-.21-.06l-.33-.08-.23-.08c-.1,0-.2-.07-.3-.12l-.23-.1-.27-.14-.21-.13a2.26,2.26,0,0,1-.26-.16c-.07,0-.14-.1-.21-.15s-.16-.11-.23-.18a1.54,1.54,0,0,1-.19-.17l-.22-.2-.17-.19c-.06-.07-.13-.14-.19-.22a1.56,1.56,0,0,1-.16-.2l-.17-.24-.14-.22-.15-.25-.11-.24c0-.09-.09-.17-.12-.26l-.1-.25c0-.1-.07-.19-.09-.28s-.05-.18-.07-.26,0-.19-.07-.29a2.51,2.51,0,0,1,0-.27c0-.1,0-.2,0-.3s0-.19,0-.28,0-.17,0-.26v-.09c0-.08,0-.15,0-.22s0-.22,0-.33a.77.77,0,0,1,0-.15,5.7,5.7,0,0,1,5.64-4.91h.2a.66.66,0,0,0,.56-.67,5.73,5.73,0,0,1-3-4.21.51.51,0,0,0,0-.13c0-.23,0-.45,0-.69h0a5.7,5.7,0,0,1,5.7-5.7h.2a1.74,1.74,0,0,0,1.53-2.23,5.54,5.54,0,0,1-1.11-2.55,2.51,2.51,0,0,1,0-.27c0-.06,0-.12,0-.19s0-.24,0-.36V156a1.36,1.36,0,0,1,0-.2c0-.1,0-.2,0-.3a1.43,1.43,0,0,1,0-.22c0-.13,0-.26.07-.39s0,0,0-.06a5.69,5.69,0,0,1,5.53-4.35h8.31a5.63,5.63,0,0,0,.58,0l.2,0c.12,0,.25,0,.37-.06l.22-.06.33-.08.22-.08.3-.11.23-.11.27-.14.22-.13.26-.15.2-.16c.08-.06.16-.11.24-.18l.18-.17a2.09,2.09,0,0,0,.22-.2,1.54,1.54,0,0,0,.17-.19l.2-.21.15-.21.18-.24.13-.22.15-.25.12-.24.12-.26.09-.25c0-.1.07-.19.1-.28a2.5,2.5,0,0,1,.07-.26c0-.1.05-.19.07-.29a2.51,2.51,0,0,1,0-.27c0-.1,0-.2,0-.3a2.62,2.62,0,0,0,0-.28c0-.1,0-.2,0-.31s0-.17,0-.26,0-.22,0-.33a.77.77,0,0,1,0-.15,5.89,5.89,0,0,0-5.85-4.91h-7.68a5.7,5.7,0,0,1-5.7-5.7v-.27a5.14,5.14,0,0,0-4.71-5.33l-1.32-.1a5.83,5.83,0,0,1-.59,0l-.19,0-.38-.06-.22-.06-.32-.08-.23-.08-.3-.11-.22-.11-.28-.14-.22-.13-.25-.15a1.56,1.56,0,0,1-.2-.16,2.07,2.07,0,0,1-.24-.17l-.19-.17-.22-.21-.17-.18c-.06-.08-.13-.15-.19-.22l-.16-.21-.17-.24-.14-.22-.15-.25-.11-.24a2.06,2.06,0,0,1-.12-.26,2.6,2.6,0,0,1-.1-.25c0-.09-.07-.19-.09-.28a2.5,2.5,0,0,1-.07-.26c0-.1,0-.19-.07-.29a2.51,2.51,0,0,1,0-.27,1.54,1.54,0,0,1,0-.3c0-.09,0-.19,0-.28s0-.17,0-.26v-.09c0-.07,0-.14,0-.22S549.21,121.42,549.23,121.31Z"/><path class="cls-10" d="M554,104.85h0Z"/><path class="cls-10" d="M553.69,104.86h0Z"/><path class="cls-10" d="M599,139.05a45.63,45.63,0,0,0-14-22.8h-30.1a5.7,5.7,0,0,0-5.64,4.91.77.77,0,0,0,0,.15c0,.11,0,.22,0,.33s0,.15,0,.22V122c0,.09,0,.17,0,.26s0,.19,0,.28a1.54,1.54,0,0,0,0,.3,2.51,2.51,0,0,0,0,.27c0,.1,0,.19.07.29a2.5,2.5,0,0,0,.07.26c0,.09.06.19.09.28a2.6,2.6,0,0,0,.1.25,2.06,2.06,0,0,0,.12.26l.11.24.15.25.14.22.17.24.16.21c.06.07.13.14.19.22l.17.18.22.21.19.17a2.07,2.07,0,0,0,.24.17,1.56,1.56,0,0,0,.2.16l.25.15.22.13.28.14.22.11.3.11.23.08.32.08.22.06.38.06.19,0a5.83,5.83,0,0,0,.59,0l1.32.1a5.14,5.14,0,0,1,4.71,5.33v.27a5.7,5.7,0,0,0,5.7,5.7h7.68a5.89,5.89,0,0,1,5.85,4.91.77.77,0,0,0,0,.15c0,.11,0,.22,0,.33s0,.18,0,.26,0,.21,0,.31a2.62,2.62,0,0,1,0,.28c0,.1,0,.2,0,.3a2.51,2.51,0,0,0,0,.27c0,.1-.05.19-.07.29a2.5,2.5,0,0,0-.07.26c0,.09-.07.18-.1.28l-.09.25-.12.26-.12.24-.15.25-.13.22-.18.24-.15.21-.2.21a1.54,1.54,0,0,1-.17.19,2.09,2.09,0,0,1-.22.2l-.18.17c-.08.07-.16.12-.24.18l-.2.16-.26.15-.22.13-.27.14-.23.11-.3.11-.22.08-.33.08-.22.06c-.12,0-.25,0-.37.06l-.2,0a5.63,5.63,0,0,1-.58,0H566.2a5.69,5.69,0,0,0-5.53,4.35s0,0,0,.06,0,.26-.07.39,0,.14,0,.22,0,.2,0,.3a1.36,1.36,0,0,0,0,.2v.28c0,.12,0,.24,0,.36s0,.13,0,.19,0,.18,0,.27a5.54,5.54,0,0,0,1.11,2.55,1.74,1.74,0,0,1-1.53,2.23H560a5.7,5.7,0,0,0-5.7,5.7h0c0,.24,0,.46,0,.69a.51.51,0,0,1,0,.13,5.73,5.73,0,0,0,3,4.21.66.66,0,0,1-.56.67h-.2a5.7,5.7,0,0,0-5.64,4.91.77.77,0,0,0,0,.15c0,.11,0,.22,0,.33s0,.14,0,.22V179c0,.09,0,.17,0,.26s0,.19,0,.28,0,.2,0,.3a2.51,2.51,0,0,0,0,.27c0,.1,0,.19.07.29s0,.17.07.26.06.18.09.28l.1.25c0,.09.08.17.12.26l.11.24.15.25.14.22.17.24a1.56,1.56,0,0,0,.16.2c.06.08.13.15.19.22l.17.19.22.2a1.54,1.54,0,0,0,.19.17c.07.07.16.12.23.18s.14.11.21.15a2.26,2.26,0,0,0,.26.16l.21.13.27.14.23.1c.1.05.2.08.3.12l.23.08.33.08a1.66,1.66,0,0,0,.21.06l.38.06.19,0a5.83,5.83,0,0,0,.59,0h18a5.7,5.7,0,0,1,5.32,3.66,2.09,2.09,0,0,0,.08.23,46.78,46.78,0,0,0,5.08-3.89,45.63,45.63,0,0,0,14-22.8,46.16,46.16,0,0,0,0-22.8Z"/><path class="cls-11" d="M435.14,266.66h-7.88a5.7,5.7,0,1,1,0-11.4h1a5.7,5.7,0,1,0,0-11.4H414.61A5.7,5.7,0,0,1,414,232.5a39.75,39.75,0,0,0-26.41,11.36,40.16,40.16,0,0,0-8.14,11.4,39.91,39.91,0,0,0,36.05,57c.38,0,.75,0,1.13,0a5.7,5.7,0,0,1,.56-11.37h9.74a5.7,5.7,0,1,0,0-11.4h-.06a5.7,5.7,0,0,1-5.7-5.7h0a5.7,5.7,0,0,1,5.7-5.7h8.3a5.7,5.7,0,0,0,0-11.4Z"/><path class="cls-12" d="M455,266.66a39.93,39.93,0,0,0-39.49-34.2h-.86c-.21,0-.43,0-.64,0a5.7,5.7,0,0,0,.64,11.36h13.64a5.7,5.7,0,1,1,0,11.4h-1a5.7,5.7,0,1,0,0,11.4h7.88a5.7,5.7,0,0,1,0,11.4h-8.3a5.7,5.7,0,0,0-5.7,5.7h0a5.7,5.7,0,0,0,5.7,5.7h.06a5.7,5.7,0,1,1,0,11.4h-9.74a5.7,5.7,0,0,0-.56,11.37A39.88,39.88,0,0,0,455,266.66Z"/><path class="cls-13" d="M912.54,119.56a50.12,50.12,0,0,0-2.58-11.4,50.83,50.83,0,0,0-5.69-11.4,51.53,51.53,0,0,0-10.4-11.4A51,51,0,0,0,861.71,74a5.7,5.7,0,0,0,0,11.4H873.1a5.7,5.7,0,0,1,0,11.4h.36a5.7,5.7,0,0,0,0,11.4h7.89a5.7,5.7,0,0,1,0,11.4H873A5.7,5.7,0,1,0,873,131h22.19a5.7,5.7,0,0,0,0,11.4H863.36a5.7,5.7,0,0,0,0,11.4h18A5.7,5.7,0,0,1,883,164.9a5.84,5.84,0,0,1-1.68.25H861.68A5.7,5.7,0,0,0,863,176.28a50.88,50.88,0,0,0,30.54-11.13l.31-.25a51.41,51.41,0,0,0,10.23-11.15,51.09,51.09,0,0,0,8.42-22.8,53.2,53.2,0,0,0,.33-5.82A51.13,51.13,0,0,0,912.54,119.56Z"/><path class="cls-13" d="M848.68,131H810.84a50.08,50.08,0,0,0,2.64,11.4h35.2a5.7,5.7,0,1,0,0-11.4Z"/><path class="cls-13" d="M824.21,113.86a5.7,5.7,0,0,0-5.7-5.7h-4a5.7,5.7,0,0,0,5.7-5.7,5.64,5.64,0,0,0-2-4.33,50.89,50.89,0,0,0-7.39,21.43h7.7A5.7,5.7,0,0,0,824.21,113.86Z"/><path class="cls-14" d="M863.36,142.35h31.87a5.7,5.7,0,0,1,0-11.4H873a5.7,5.7,0,1,1,0-11.39h8.31a5.7,5.7,0,0,0,0-11.4h-7.89a5.7,5.7,0,0,1,0-11.4h-.36a5.7,5.7,0,0,0,0-11.4H861.72a5.7,5.7,0,0,1,0-11.4h0a51.21,51.21,0,0,0-41.77,21.6c-.28.39-.55.79-.82,1.2s-.6.9-.89,1.37a5.64,5.64,0,0,1,2,4.33,5.7,5.7,0,0,1-5.7,5.7h4a5.7,5.7,0,1,1,0,11.4h-7.7a50.09,50.09,0,0,0,0,11.39h37.84a5.7,5.7,0,1,1,0,11.4h-35.2a50.88,50.88,0,0,0,5.77,11.4,51.47,51.47,0,0,0,10.54,11.4,51,51,0,0,0,31.89,11.15l1.34,0a5.7,5.7,0,0,1-1.34-11.13h19.67a5.84,5.84,0,0,0,1.68-.25,5.7,5.7,0,0,0-1.68-11.15h-18a5.7,5.7,0,0,1,0-11.4Z"/><path class="cls-15" d="M1410.89,273.56h0a5.7,5.7,0,0,0,5.7-5.7V234.47A56.54,56.54,0,0,0,1405.2,268,5.71,5.71,0,0,0,1410.89,273.56Z"/><path class="cls-15" d="M1455.62,237.57a5.7,5.7,0,0,0,5.7-5.69V212.72a5,5,0,0,0-.08-.87,56.24,56.24,0,0,0-11.32,1.27v18.76A5.7,5.7,0,0,0,1455.62,237.57Z"/><path class="cls-15" d="M1467.64,273.56h0a5.7,5.7,0,0,0-5.7,5.7v46.07a57.1,57.1,0,0,0,11.4-1.15V279.26A5.7,5.7,0,0,0,1467.64,273.56Z"/><path class="cls-16" d="M1461.24,211.85a5,5,0,0,1,.08.87v19.16a5.7,5.7,0,0,1-11.4,0V213.12a56.76,56.76,0,0,0-33.33,21.35v33.39a5.7,5.7,0,0,1-11.39.14v.58a56.74,56.74,0,0,0,56.74,56.75V279.26a5.7,5.7,0,1,1,11.4,0v44.92a56.76,56.76,0,0,0,34.2-21.82V267.61a5.7,5.7,0,0,1,5.7-5.7h0a5.67,5.67,0,0,1,5.37,3.82,56.7,56.7,0,0,0-56.67-53.89Z"/><path class="cls-15" d="M1513.24,261.91h0a5.7,5.7,0,0,0-5.7,5.7v34.75a56.5,56.5,0,0,0,11.14-33.78c0-.95,0-1.91-.07-2.85A5.67,5.67,0,0,0,1513.24,261.91Z"/><path class="cls-15" d="M1464.32,176.69c.11.05.24,0,.31-.07a.14.14,0,0,0,.12-.09h0c-1.12.31-2.1,1.39-3.34,2.89-7.42,10.08-10.75,22.3-14,34.71-8.12,34.88-7.24,72.78.17,107.7,3.05,12.42,6.23,24.77,13.7,34.81,1.24,1.47,2.34,2.64,3.43,2.85h0c0-.05-.06-.1-.11-.1s-.2-.13-.31-.09-.25-.05-.34-.06-.18,0-.18,0a27.36,27.36,0,0,0,4.92-7.93c13.51-33.94,12.18-86.52,9.14-123.14-1.51-14.57-4.27-40.24-13.69-51-.29-.28-.42-.35-.35-.42a.15.15,0,0,0,.16,0c.09,0,.23,0,.34-.05Zm0-21.28c14.7.06,23.29,14.44,28.5,26.06,11.71,27.54,15.47,57.21,15.37,86.53-.58,29.12-3.82,59.23-15.27,86.56-5.35,12.66-16.22,28.9-32.36,25.57-40.4-9.41-34.53-135.92-29.2-169,2.81-18.37,9.18-54.51,33-55.68Z"/><path class="cls-16" d="M1446.13,323.1v-109A56.84,56.84,0,0,0,1422.29,228v81.19A56.84,56.84,0,0,0,1446.13,323.1Z"/><path class="cls-17" d="M1591.26,255.75c7-1.2,13.43-4.08,20.42-5.46a96.17,96.17,0,0,1,13.39-1.63,127.84,127.84,0,0,1,13.42-.15,79.78,79.78,0,0,1,13.59,1.87,39.74,39.74,0,0,0-2.61-10.34,41.11,41.11,0,0,1-6.79,1.82,45.5,45.5,0,0,1-13.88.25,48.94,48.94,0,0,1-6.8-1.53,97.41,97.41,0,0,0-12.39-2.71,29,29,0,0,0-12.83.66c-2.12.59-4.29,1.32-6.53,1.92a33.94,33.94,0,0,1-15.32.89,39.69,39.69,0,0,0-2.38,13.58c0,.46,0,.92,0,1.37A65.32,65.32,0,0,0,1591.26,255.75Z"/><path class="cls-17" d="M1632.83,279.32c3.59.05,7.2.3,10.79.49.67-.84,1.31-1.7,1.92-2.59-.59-.05-1.19-.12-1.78-.2a50.42,50.42,0,0,1-6.8-1.53,97.41,97.41,0,0,0-12.39-2.71,29.12,29.12,0,0,0-12.83.65c-2.12.6-4.29,1.33-6.53,1.92a33.65,33.65,0,0,1-20.42-.41c-2.77-.95-5.44-1.7-8.17-2.45a39.84,39.84,0,0,0,4.69,7.37c7.21,0,16.67-.05,23.64-.46C1614.27,279.09,1623.52,279.22,1632.83,279.32Z"/><path class="cls-17" d="M1622.13,220a30.79,30.79,0,0,0,8.27-.66,39.89,39.89,0,0,0-32.33-1.59c3.85,0,7.68.87,11.42,1.12C1613.66,219,1617.94,219.61,1622.13,220Z"/><path class="cls-17" d="M1599.59,235.8c5.61-.94,11.15-2.09,16.89-2.16,4.44,0,8.77,1.26,13.07,1.45,4.06.2,8.37.31,12.44.25,1.65,0,3.32-.19,5-.35a40.13,40.13,0,0,0-13.76-14.13,26.91,26.91,0,0,0-4.19.87c-2.11.59-4.29,1.33-6.52,1.92a33.65,33.65,0,0,1-20.42-.41c-3.26-1.12-6.38-2-9.62-2.86a40.08,40.08,0,0,0-15,15.25c4.07.19,8.25.79,12.33,1.12A34.92,34.92,0,0,0,1599.59,235.8Z"/><path class="cls-17" d="M1592.17,270.52c4.17.17,8.45.79,12.64,1.13a34.55,34.55,0,0,0,9.74-.94c5.61-.95,11.15-2.1,16.89-2.16,4.44,0,8.77,1.26,13.07,1.44,1.57.08,3.19.14,4.81.19a39.75,39.75,0,0,0,3-12.92,200.45,200.45,0,0,0-27-2,162.42,162.42,0,0,0-17.92.89c-5.22.57-10.51,1.37-15.75,1.88s-12.8,1.07-18.74,1.57a39.36,39.36,0,0,0,2.62,10.3,30.91,30.91,0,0,1,3.61-.41C1583.48,269.18,1587.88,270.23,1592.17,270.52Z"/><path class="cls-17" d="M1617.44,281.4c-6.16.25-12,1.7-18.06,3a72.64,72.64,0,0,1-12.14,1.44,39.88,39.88,0,0,0,53.37-2.66c-1.65-.33-3.29-.66-4.95-.94A88.11,88.11,0,0,0,1617.44,281.4Z"/><path class="cls-18" d="M1649.47,240a41.26,41.26,0,0,1-6.78,1.82,45.25,45.25,0,0,1-13.89.25,48.94,48.94,0,0,1-6.8-1.53,97.41,97.41,0,0,0-12.39-2.71,29,29,0,0,0-12.83.66c-2.12.59-4.29,1.33-6.53,1.92a34,34,0,0,1-15.33.89,39.8,39.8,0,0,1,2.6-5.71c4.07.19,8.25.79,12.34,1.11a34.51,34.51,0,0,0,9.73-.94c5.61-.94,11.15-2.09,16.89-2.16,4.44,0,8.77,1.26,13.07,1.44,4.06.21,8.37.33,12.44.26,1.65,0,3.33-.19,5-.35A38.07,38.07,0,0,1,1649.47,240Z"/><path class="cls-18" d="M1576.62,272.49c-.42-.86-.81-1.74-1.17-2.63Z"/><path class="cls-18" d="M1649.32,270.18a40.79,40.79,0,0,1-3.78,7.05c-.59-.06-1.19-.13-1.78-.21a50.92,50.92,0,0,1-6.81-1.53,96.92,96.92,0,0,0-12.38-2.72,29.27,29.27,0,0,0-12.83.66c-2.12.6-4.29,1.33-6.53,1.92a33.65,33.65,0,0,1-20.42-.41c-2.77-.95-5.44-1.69-8.17-2.45-.42-.86-.81-1.74-1.17-2.63a30.91,30.91,0,0,1,3.61-.41c4.42-.27,8.82.79,13.11,1.07s8.45.8,12.65,1.13a34.51,34.51,0,0,0,9.73-.94c5.61-.95,11.15-2.1,16.89-2.16,4.44,0,8.77,1.26,13.07,1.44C1646.08,270.07,1647.7,270.13,1649.32,270.18Z"/><path class="cls-18" d="M1598.07,217.7a39.77,39.77,0,0,0-5.58,2.68Z"/><path class="cls-18" d="M1633.24,220.86a26.67,26.67,0,0,0-4.19.87c-2.11.59-4.29,1.33-6.52,1.92a33.58,33.58,0,0,1-20.42-.42c-3.26-1.11-6.38-1.95-9.62-2.85a39.77,39.77,0,0,1,5.58-2.68c3.86,0,7.68.87,11.41,1.12,4.18.17,8.46.79,12.65,1.13a31.21,31.21,0,0,0,8.27-.66C1631.37,219.78,1632.32,220.3,1633.24,220.86Z"/><path class="cls-18" d="M1652.35,254.92c0,.78,0,1.56-.08,2.33a202.1,202.1,0,0,0-27-2,162.36,162.36,0,0,0-17.91.89c-5.22.57-10.51,1.37-15.75,1.88s-12.8,1.07-18.74,1.57c-.13-1.07-.21-2.17-.25-3.26a65.69,65.69,0,0,0,18.68-.55c7-1.2,13.43-4.08,20.43-5.46a95.85,95.85,0,0,1,13.38-1.63,130.58,130.58,0,0,1,13.42-.15,78.81,78.81,0,0,1,13.59,1.88A39.79,39.79,0,0,1,1652.35,254.92Z"/><path class="cls-18" d="M1643.62,279.81a38.51,38.51,0,0,1-3,3.37c-1.65-.33-3.29-.66-4.95-.94a88.11,88.11,0,0,0-18.22-.84c-6.16.25-12,1.7-18.06,3a72.89,72.89,0,0,1-12.14,1.44,39.91,39.91,0,0,1-5.93-6c7.21,0,16.67-.05,23.64-.46,9.33-.31,18.57-.19,27.88-.08C1636.42,279.37,1640,279.62,1643.62,279.81Z"/><circle class="cls-18" cx="1711.39" cy="256.71" r="5.18"/><path class="cls-19" d="M1311.26,238.23l-.22.43q-1.08,2.16-2.34,4.17c-.17.27-.34.54-.52.81-.56.86-1.15,1.7-1.76,2.52-.19.26-.39.51-.59.77a47.18,47.18,0,0,1-4.08,4.6c-.23.24-.47.47-.71.7a49,49,0,0,1-5.48,4.51l-.84.59c-1.08.73-2.19,1.42-3.32,2.05-.3.18-.62.36-.93.52a48.63,48.63,0,0,1-8.55,3.62l-1.25.38a50.25,50.25,0,0,1-5,1.16c-.47.08-.93.16-1.4.22a45.55,45.55,0,0,1-5.48.5q-.83,0-1.65,0a48.58,48.58,0,0,1-9.8-1c-.8-.16-1.59-.34-2.39-.55A49.77,49.77,0,0,1,1236.4,255c-.69-.56-1.37-1.13-2-1.72a48.74,48.74,0,0,1-6.25-6.78c-.34-.45-.67-.9-1-1.36a48.58,48.58,0,0,1-2.82-4.47c-.24-.42-.46-.84-.68-1.27a45,45,0,0,1-2.09-4.58c-.16-.4-.32-.81-.47-1.21a49.31,49.31,0,0,1-2.34-8.87c-.06-.36-.11-.71-.16-1.07-.18-1.27-.32-2.55-.4-3.83l-.06-1a48.85,48.85,0,0,1,.21-7c0-.34.07-.67.11-1a48,48,0,0,1,1.13-6c.08-.32.16-.63.25-.94.27-1,.57-2,.9-2.93.11-.3.21-.6.33-.91a45.53,45.53,0,0,1,1.8-4.3c.06-.14.13-.29.2-.43l.22-.43c.31-.63.63-1.25,1-1.85.16-.29.31-.56.48-.84a49,49,0,0,1,3.7-5.51l.61-.77a48.6,48.6,0,0,1,5.51-5.77l.78-.68a47.85,47.85,0,0,1,5.75-4.21c.29-.19.59-.37.9-.55a47.65,47.65,0,0,1,5.26-2.73c.37-.17.74-.32,1.11-.47,1.24-.52,2.51-1,3.8-1.4.41-.14.82-.26,1.24-.38a48.34,48.34,0,0,1,6.75-1.48c.51-.07,1-.14,1.51-.19a48.27,48.27,0,0,1,6.7-.31c.63,0,1.25,0,1.88.08a50,50,0,0,1,5.55.66c.87.16,1.74.34,2.6.55a49.55,49.55,0,0,1,10.3,3.67,50.08,50.08,0,0,1,8.42,5.2c.65.5,1.28,1,1.9,1.54a47.19,47.19,0,0,1,4.37,4.22c.42.45.83.92,1.22,1.39a47.49,47.49,0,0,1,4.15,5.66q.4.65.78,1.29a49.14,49.14,0,0,1,3.12,6.35c.17.4.32.8.47,1.21.49,1.29.92,2.59,1.29,3.91.11.39.21.78.31,1.16a49,49,0,0,1,1.14,5.89c0,.35.09.69.12,1a47.8,47.8,0,0,1,.25,7.18c0,.34,0,.68,0,1a49,49,0,0,1-1.13,7.94c-.08.32-.15.63-.23.95a49.76,49.76,0,0,1-2,6.34c-.12.3-.24.59-.37.89-.28.67-.58,1.34-.9,2C1311.4,237.94,1311.33,238.09,1311.26,238.23Z"/><path class="cls-20" d="M1297.07,177.81a82.89,82.89,0,0,1-10.42-4.35c-3.4-1.66-6.19-3.21-8.3-4.52-.86-.21-1.73-.39-2.6-.55a89.79,89.79,0,0,0,10.47,5.93c1.1.54,8.48,4.09,12.75,5C1298.35,178.83,1297.72,178.31,1297.07,177.81Z"/><path class="cls-20" d="M1245.49,257.87a91.24,91.24,0,0,0-11.12-4.6c.66.59,1.34,1.16,2,1.72a91.28,91.28,0,0,1,8.67,3.75,84.32,84.32,0,0,1,9.85,5.52c.8.21,1.59.39,2.39.55C1253.93,262,1246.59,258.41,1245.49,257.87Z"/><path class="cls-20" d="M1303.34,183.57a136.22,136.22,0,0,1-18-7.49,148,148,0,0,1-15.17-8.35c-.63,0-1.25-.07-1.88-.08A157.34,157.34,0,0,0,1285,177c5.31,2.59,13.76,6.33,19.61,8C1304.17,184.49,1303.76,184,1303.34,183.57Z"/><path class="cls-20" d="M1308.71,190.62a247.86,247.86,0,0,1-25.18-10.76c-8.17-4-15.77-8.12-21.91-11.9-.5,0-1,.12-1.51.19a254.17,254.17,0,0,0,23,12.57,243.9,243.9,0,0,0,26.39,11.19Q1309.12,191.27,1308.71,190.62Z"/><path class="cls-20" d="M1312.61,198.26c-9.41-3.57-20.24-8.31-31.36-13.73-10.17-4.95-19.74-10.07-27.89-14.9-.42.12-.83.24-1.24.38,8.34,5,18.2,10.27,28.7,15.39,11.47,5.59,22.63,10.45,32.26,14.07C1312.93,199.06,1312.78,198.66,1312.61,198.26Z"/><path class="cls-20" d="M1314.37,203.38c-10.66-4.19-22.59-9.47-34.79-15.42-11.26-5.49-21.93-11.15-31.26-16.55-.37.15-.74.3-1.11.47,9.5,5.53,20.41,11.32,32,16.94,12.48,6.09,24.67,11.48,35.52,15.72C1314.58,204.16,1314.48,203.77,1314.37,203.38Z"/><path class="cls-20" d="M1315.82,210.43c-11.57-4.72-24.61-10.54-38.71-17.42-13.07-6.37-24.87-12.58-35.16-18.4-.31.18-.61.36-.9.55,11.11,6.3,23.34,12.73,35.64,18.72,13.19,6.43,26.72,12.5,39.25,17.59C1315.91,211.12,1315.87,210.78,1315.82,210.43Z"/><path class="cls-20" d="M1316.19,218.65c-13.41-5.65-27.68-12.15-42.2-19.23-13.6-6.62-26.66-13.4-38.69-20l-.78.68c12.14,6.71,25.32,13.55,39,20.24,14.65,7.14,29.06,13.69,42.57,19.38C1316.17,219.33,1316.18,219,1316.19,218.65Z"/><path class="cls-20" d="M1315,227.61c-14.38-6.22-29.44-13.16-44.72-20.61-14.36-7-28.24-14.12-41.28-21.18l-.61.77c13.1,7.09,27,14.25,41.47,21.28,15.34,7.48,30.47,14.44,44.91,20.69C1314.86,228.24,1314.93,227.93,1315,227.61Z"/><path class="cls-20" d="M1312.73,234.9c-14.8-6.52-30.15-13.65-45.69-21.22-14.63-7.13-28.83-14.38-42.34-21.58-.17.28-.32.55-.48.84,13.53,7.21,27.75,14.46,42.4,21.6,15.55,7.59,30.92,14.72,45.74,21.25C1312.49,235.49,1312.61,235.2,1312.73,234.9Z"/><path class="cls-20" d="M1312.61,198.26c-9.41-3.57-20.24-8.31-31.36-13.73-10.17-4.95-19.74-10.07-27.89-14.9-.42.12-.83.24-1.24.38,8.34,5,18.2,10.27,28.7,15.39,11.47,5.59,22.63,10.45,32.26,14.07C1312.93,199.06,1312.78,198.66,1312.61,198.26Z"/><path class="cls-20" d="M1247.49,253.77a202.15,202.15,0,0,0-20.37-8.64c.33.46.66.91,1,1.36a190.52,190.52,0,0,1,19,8.15,177.31,177.31,0,0,1,20,11.17q.83,0,1.65,0A184.35,184.35,0,0,0,1247.49,253.77Z"/><path class="cls-20" d="M1249.11,250.44c-9.11-4.44-18-8.27-25.49-11.05.22.43.44.85.68,1.27,6.64,2.48,14.85,6,24.39,10.65a274.19,274.19,0,0,1,25.55,14c.47-.06.93-.14,1.4-.22A273.89,273.89,0,0,0,1249.11,250.44Z"/><path class="cls-20" d="M1250.91,246.76c-10.52-5.13-20.78-9.65-29.85-13.16.15.4.31.81.47,1.21,8.84,3.46,18.78,7.85,29,12.81,11.14,5.43,21.55,11.05,30.18,16.28l1.25-.38C1273.12,258.16,1262.39,252.35,1250.91,246.76Z"/><path class="cls-20" d="M1254.33,239.74c-12-5.85-24.31-11.38-35.77-16.08,0,.36.1.71.16,1.07,10.57,4.35,22.42,9.65,35.19,15.88,13.8,6.72,26.09,13.26,36.56,19.29.31-.16.63-.34.93-.52C1280.05,252.82,1267.23,246,1254.33,239.74Z"/><path class="cls-20" d="M1256.14,236c-12.72-6.21-25.74-12.1-38-17.24l.06,1c11.89,5,24.62,10.75,37.56,17.06,14.51,7.08,27.61,14,39,20.44l.84-.59C1283.29,249.78,1269.75,242.66,1256.14,236Z"/><path class="cls-20" d="M1259.32,229.52c-14-6.83-27.8-13.15-40.9-18.77,0,.33-.08.66-.11,1,13,5.58,26.69,11.86,40.58,18.63,14.82,7.23,29,14.61,42.15,21.85.24-.23.48-.46.71-.7C1288.57,244.24,1274.24,236.8,1259.32,229.52Z"/><path class="cls-20" d="M1262.28,223.44c-14.48-7.05-28.76-13.66-42.48-19.65-.09.31-.17.62-.25.94,13.67,6,27.89,12.55,42.3,19.58,15.34,7.47,30.14,15.09,44,22.62.2-.26.4-.51.59-.77C1292.52,238.6,1277.66,231,1262.28,223.44Z"/><path class="cls-20" d="M1264,219.92c-14.61-7.12-29-13.83-43-20-.12.31-.22.61-.33.91,13.9,6.13,28.3,12.82,42.87,19.93,15.49,7.55,30.48,15.23,44.61,22.85.18-.27.35-.54.52-.81C1294.55,235.19,1279.52,227.49,1264,219.92Z"/><path class="cls-20" d="M1311.26,238.23l-.22.43-88.21-43c.06-.14.13-.29.2-.43l.22-.43,88.21,43C1311.4,237.94,1311.33,238.09,1311.26,238.23Z"/><path class="cls-21" d="M1191.2,179.49l.25-.14,0-.09C1191.35,179.17,1191.31,179.32,1191.2,179.49Z"/><path class="cls-21" d="M1191.08,179.64a1.34,1.34,0,0,0,.11-.14l-.44.29C1190.64,180,1190.92,179.88,1191.08,179.64Z"/><path class="cls-22" d="M1317.74,219.21l-1.54-1c0,.13,0,.26,0,.39,0,.34,0,.68,0,1-.06,1-.15,2.05-.28,3.07a161.8,161.8,0,0,1,17.44,15.14c3.71,4,7.57,8.2,9.28,13.16.24.93.45,1.88,0,2.47-1.82,1.26-4.53,1.25-6.82,1.18a53.8,53.8,0,0,1-10.76-1.78,147.67,147.67,0,0,1-18.74-6.55c-8.12-3.39-16.08-7.27-24-11-20.67-9.85-42.62-19.79-62.35-32.14a204.74,204.74,0,0,1-18.1-12.63,61.13,61.13,0,0,1-7.62-7.17,17.87,17.87,0,0,1-2.78-4.12h0c5.56-3,20.77-.77,26.9.39,4.36.88,8.8,1.92,13.28,3.1.93-1,1.89-1.91,2.89-2.79l.78-.68q1-.83,2-1.59a207.4,207.4,0,0,0-28.87-9.35c-9-1.88-23.52-4.56-29.14,5.45-6.51,13,12,29.75,20.7,37.46a209.28,209.28,0,0,0,18.94,14.43c7.11,4.84,14.47,9.29,22,13.46a219.1,219.1,0,0,0,33.56,15.35q8.19,2.84,16.62,5a190.86,190.86,0,0,0,32,5.35c8.15.42,23.08,1.44,27.37-7.56C1356.6,243.44,1327.68,225.63,1317.74,219.21Z"/><path class="cls-23" d="M1653.22,72.6a3.13,3.13,0,1,1-3.13-3.13A3.13,3.13,0,0,1,1653.22,72.6ZM544.81,302.36a3.13,3.13,0,1,1-3.13-3.13A3.13,3.13,0,0,1,544.81,302.36ZM12.18,39.38a3.13,3.13,0,1,1-3.13-3.13A3.13,3.13,0,0,1,12.18,39.38Zm1215.05-22.7a3.13,3.13,0,1,1-3.13-3.13A3.13,3.13,0,0,1,1227.23,16.68ZM716.41,366.82a3.13,3.13,0,1,1-3.13-3.13A3.13,3.13,0,0,1,716.41,366.82Zm731.28-285.5a1.57,1.57,0,1,0,1.57,1.56A1.56,1.56,0,0,0,1447.69,81.32ZM164.91,323.77a1.56,1.56,0,1,0,1.57,1.56A1.56,1.56,0,0,0,164.91,323.77ZM1.56,354.51a1.56,1.56,0,1,0,1.57,1.56A1.56,1.56,0,0,0,1.56,354.51ZM754,0a1,1,0,0,0-1,1A1,1,0,1,0,755,1,1,1,0,0,0,754,0ZM9.05,262.93a1,1,0,1,0,1,1A1,1,0,0,0,9.05,262.93ZM488.36,35.29a1,1,0,0,0,0,1.93,1,1,0,1,0,0-1.93Zm534-25.14a1,1,0,1,0,1,1A1,1,0,0,0,1022.34,10.15ZM644.71,250.57a1,1,0,1,0,1,1A1,1,0,0,0,644.71,250.57ZM327.26,315.9a1,1,0,1,0,1,1A1,1,0,0,0,327.26,315.9Zm808.49,17.34a1.56,1.56,0,1,0,1.57,1.56A1.56,1.56,0,0,0,1135.75,333.24Zm535.57,22.83a1.56,1.56,0,1,0,1.56,1.56A1.56,1.56,0,0,0,1671.32,356.07Z"/></g></g></svg>